<?xml version="1.0" encoding="UTF-8"?>
<svg id="_图层_1" data-name="图层 1" xmlns="http://www.w3.org/2000/svg" viewBox="0 0 144 144">
  <defs>
    <style>
      .cls-1 {
        fill: #b391c2;
      }

      .cls-2 {
        fill: #37b26f;
      }

      .cls-3 {
        fill: #e34055;
      }

      .cls-4 {
        fill: #85cfed;
      }

      .cls-5 {
        fill: #fff;
      }
    </style>
  </defs>
  <circle class="cls-4" cx="72" cy="72" r="72"/>
  <g>
    <path class="cls-2" d="M48.54,46.83c-3.92,16.83-7.83,33.65-11.75,50.48-1.48,6.34,1.97,13.07,8.43,14.85,6.1,1.68,13.36-2.05,14.85-8.43,3.92-16.83,7.83-33.65,11.75-50.48,1.48-6.34-1.97-13.07-8.43-14.85-6.1-1.68-13.36,2.05-14.85,8.43h0Z"/>
    <path class="cls-5" d="M72.29,45.88c-3.92,16.83-7.83,33.65-11.75,50.48-1.48,6.34,1.97,13.07,8.43,14.85,6.1,1.68,13.36-2.05,14.85-8.43l11.75-50.48c1.48-6.34-1.97-13.07-8.43-14.85-6.1-1.68-13.36,2.05-14.85,8.43h0Z"/>
    <path class="cls-5" d="M48,53.31c3.86,16.84,7.71,33.68,11.57,50.52,1.49,6.51,8.97,10.34,15.2,8.63,6.68-1.84,10.13-8.67,8.63-15.2-3.86-16.84-7.71-33.68-11.57-50.52-1.49-6.51-8.97-10.34-15.2-8.63-6.68,1.84-10.13,8.67-8.63,15.2h0Z"/>
    <path class="cls-3" d="M71.75,52.36c3.86,16.84,7.71,33.68,11.57,50.52,1.49,6.51,8.97,10.34,15.2,8.63,6.68-1.84,10.13-8.67,8.63-15.2-3.86-16.84-7.71-33.68-11.57-50.52-1.49-6.51-8.97-10.34-15.2-8.63-6.68,1.84-10.13,8.67-8.63,15.2h0Z"/>
  </g>
  <g>
    <path class="cls-1" d="M61.1,95.88h22.68c3.18,0,6.23-2.8,6.09-6.08s-2.67-6.08-6.09-6.08h-22.68c-3.18,0-6.23,2.8-6.09,6.08.15,3.3,2.67,6.08,6.09,6.08h0Z"/>
    <path class="cls-1" d="M62.39,64h20.08c2.82,0,5.52-2.6,5.39-5.64-.13-3.06-2.37-5.64-5.39-5.64h-20.08c-2.82,0-5.52,2.6-5.39,5.64.13,3.06,2.37,5.64,5.39,5.64h0Z"/>
    <path class="cls-1" d="M66.89,62.47v23.86c0,3.35,2.41,6.56,5.25,6.4s5.25-2.81,5.25-6.4v-23.86c0-3.35-2.41-6.56-5.25-6.4s-5.25,2.81-5.25,6.4h0Z"/>
  </g>
</svg>